<svg width="282" height="220" viewBox="0 0 282 220" fill="none" xmlns="http://www.w3.org/2000/svg">
<path d="M134.652 174.782C134.652 174.782 139.054 193.52 163.442 207.456C178.814 216.237 211.135 225.347 227.637 213.153C246.422 199.264 250.471 185.517 251.365 180.456C252.26 175.394 249.576 161.435 249.576 161.435L218.668 150.442C218.668 150.442 167.562 162.918 166.667 162.918C165.796 162.942 134.652 174.782 134.652 174.782Z" fill="#E06767"/>
<path d="M249.671 186.482C250.353 184.716 250.777 183.21 251.083 181.962C245.622 180.503 239.289 178.149 233.545 175.7C234.016 175.489 234.487 175.277 234.934 175.041C237.759 173.605 240.537 171.934 242.538 169.486C244.703 166.849 245.692 163.436 245.574 160.023L218.668 150.442C218.668 150.442 167.562 162.918 166.667 162.918C165.773 162.918 134.652 174.759 134.629 174.782C134.229 174.924 137.524 181.844 137.736 182.198C140.726 187.777 147.6 195.545 152.308 199.759C152.308 199.759 150.142 194.768 154.238 192.908C156.051 192.085 158.24 192.485 160.1 193.214C164.761 195.074 170.599 202.23 185.194 209.905C195.104 215.131 205.297 219.132 208.593 218.991C212.995 218.803 220.975 216.661 220.975 216.661C220.975 216.661 210.805 215.695 194.468 208.092C189.525 205.785 171.234 196.793 169.492 191.778C168.998 190.366 167.232 187.871 170.434 186.458C175.33 184.269 188.677 195.78 200.142 201.053C213.795 207.315 228.673 212.329 228.673 212.329C230.273 211.105 231.78 209.881 233.192 208.657C225.589 206.703 218.15 204.019 210.97 200.889C203.814 197.781 196.799 193.756 190.325 189.33C186.206 186.505 183.357 181.75 187.783 181.138C195.033 180.126 204.402 187.023 213.795 191.896C222.27 196.298 232.439 198.323 241.973 199.523C243.197 197.993 245.198 195.074 245.198 195.074C245.198 195.074 241.596 194.462 230.956 192.108C226.295 191.072 221.775 189.73 217.632 187.4C216.549 186.788 212.759 182.904 217.938 181.115C223.117 179.326 228.037 182.88 235.852 184.693C243.691 186.553 249.6 186.647 249.671 186.482Z" fill="#B05353"/>
<path d="M267.585 89.0955C267.585 89.0955 266.996 70.0279 256.756 53.1494C247.929 38.6015 235.334 37.1185 235.334 37.1185C235.334 37.1185 232.839 27.9613 224.082 20.9463C215.325 13.9312 197.317 8.06968 197.317 8.06968C161.253 -8.17315 138.772 5.12714 138.772 5.12714C138.772 5.12714 85.2883 -7.58464 42.4684 28.7381C42.4684 28.7381 20.8584 38.9075 12.0308 58.1164C7.15792 68.7567 9.25302 86.1059 9.25302 86.1059C-5.74218 103.526 -1.62262 131.115 15.2087 144.933C23.236 151.501 33.1465 155.856 43.4807 156.962C47.5296 157.386 49.5776 156.421 51.2725 160.54C53.7678 166.614 55.7216 172.852 60.7357 177.207C65.844 181.633 71.7997 185.07 78.132 187.424C90.4201 191.967 104.309 192.461 116.715 188.012C120.834 186.529 134.04 186.388 134.04 186.388C134.04 186.388 141.032 192.155 165.843 191.237C190.655 190.319 201.13 179.608 206.804 177.607C211.159 176.077 216.502 172.711 221.257 173.582C223.964 174.076 226.389 175.465 228.861 176.642C235.782 179.961 243.55 181.774 251.177 181.068C280.014 178.408 283.051 145.192 280.202 122.358C277.33 99.312 267.585 89.0955 267.585 89.0955Z" fill="#FFB3B3"/>
<path d="M54.5916 134.175C54.003 135.517 48.118 148.37 43.1745 150.442C34.6293 154.043 21.3997 145.475 16.3385 143.121C15.3498 142.65 14.6907 143.827 14.6907 143.827C13.8668 144.886 16.0089 147.075 17.0918 147.852C21.282 150.865 31.3337 157.692 38.796 159.552C48.424 161.953 55.6509 159.552 55.6509 159.552C55.6509 159.552 58.2874 140.272 58.4992 139.401C58.7111 138.53 58.4992 130.856 58.4992 130.856L54.5916 134.175Z" fill="#EA6363"/>
<path d="M138.701 188.577C138.701 188.577 133.852 187.824 126.413 187.941C118.974 188.059 108.499 190.201 108.499 190.201C108.499 190.201 115.891 186.835 119.186 183.892C122.482 180.926 123.141 173.723 122.6 169.439C122.035 165.06 120.552 162.847 109.346 160.517L142.915 158.657C131.663 166.143 129.615 181.562 138.701 188.577Z" fill="#F07371"/>
<path d="M240.325 117.744C234.487 118.521 228.814 117.415 223.776 114.425C221.587 113.107 221.352 109.999 223.282 108.328C224.577 107.222 226.436 107.151 227.872 108.093C236.017 113.436 244.303 109.929 248.729 107.175C260.028 100.136 265.631 87.6596 264.878 74.5712C267.137 78.573 268.785 82.9986 269.185 87.5654C270.198 98.6529 262.218 107.292 253.296 112.871C249.035 115.555 244.633 117.179 240.325 117.744Z" fill="#F07371"/>
<path d="M265.56 128.785C263.018 128.785 260.264 128.243 257.651 126.642C254.967 124.995 253.461 122.782 252.119 120.051C251.012 117.815 249.459 116.426 246.61 116.638C244.609 116.802 242.679 117.932 240.678 117.65C243.338 112.942 247.599 109.175 252.613 107.127C254.92 106.186 257.509 105.597 259.863 106.327C260.122 107.975 259.016 109.505 258.38 111.059C257.274 113.813 257.721 117.108 259.51 119.463C260.734 121.063 263.065 122.782 265.207 122.64C266.62 122.546 267.608 121.346 268.997 121.228C273.305 120.922 274.388 127.231 270.151 128.22C268.785 128.549 267.232 128.785 265.56 128.785Z" fill="#F07371"/>
<path d="M224.129 41.497C222.411 41.7089 220.669 41.5206 219.774 40.014C218.621 38.0601 219.586 35.6119 221.728 34.8586C227.637 32.7871 234.275 33.1637 240.043 35.4707C245.08 37.4952 248.117 40.9321 250.118 43.2625C252.119 45.593 253.484 50.2069 253.484 50.2069C248.47 45.852 245.622 39.0017 224.129 41.497Z" fill="#F07371"/>
<path d="M201.578 36.9537C196.493 36.7418 201.436 36.9537 201.389 36.9537C193.339 36.9537 183.711 34.1759 182.416 24.9952C180.085 8.28155 204.756 14.7787 213.795 16.0263C213.795 16.0263 206.662 8.70528 197.317 8.06969C192.962 7.7872 188.466 7.90491 184.228 9.03485C179.567 10.2825 177.213 13.79 172.976 15.532C169.775 16.8267 166.126 16.3323 162.83 15.3437C159.794 14.4256 149.93 9.129 149.648 15.7203C149.577 17.5329 150.872 19.0866 152.637 19.3455C159.794 20.3577 169.68 23.5592 173.353 30.3859C175.048 33.5168 175.448 37.3068 174.459 40.7201C173.988 42.3915 173.306 44.5337 174.695 45.593C175.754 46.4169 177.378 45.8755 178.343 44.9339C179.308 43.9922 179.921 42.7211 180.886 41.7795C183.899 38.8134 186.63 40.932 189.831 42.0619C193.527 43.3802 197.435 44.0158 201.366 44.0158C201.46 44.0158 194.468 43.3331 201.625 44.0158C208.757 44.6749 206.639 37.1655 201.578 36.9537Z" fill="#F07371"/>
<path d="M88.4192 29.2795C84.5115 25.7484 82.6518 12.0009 93.8806 4.91522C93.8806 4.91522 87.7601 5.12708 82.6518 9.12894C78.2969 12.5423 77.4259 18.4509 78.4616 24.6891C78.7206 26.2898 77.4729 27.7494 75.8487 27.6552C70.0107 27.3492 64.1962 28.4085 59.1821 30.7154C57.2753 31.61 56.6162 34.0111 57.7461 35.8001C58.7113 37.3067 60.6181 37.8246 62.2423 37.0713C67.8685 34.4819 76.0605 33.093 82.6283 34.7408C89.2902 36.4122 93.9747 38.3425 99.2007 47.4055C100.095 48.9357 102.026 49.4771 103.485 48.4884C104.615 47.7116 105.086 46.2521 104.615 44.9809C100.142 32.6457 93.6922 34.0346 88.4192 29.2795Z" fill="#F07371"/>
<path d="M102.991 71.6757C102.426 69.7453 100.448 68.686 98.5887 69.251C92.939 70.9459 84.7705 70.4516 81.1218 66.7793C76.2489 55.5034 72.5531 53.5025 66.6445 51.5016C64.2904 50.7012 61.9364 52.7257 62.1718 55.1739C62.3131 56.5628 63.2311 57.7398 64.5729 58.14C68.7631 59.3876 72.9768 65.0137 75.1425 70.7576C77.1199 75.96 77.3553 82.8102 72.8827 87.7066C71.7292 88.9778 71.4938 90.8139 72.506 92.2028L72.5531 92.2734C73.8478 94.0625 76.4373 94.2037 77.9438 92.5795C79.5446 90.8375 81.216 88.5776 81.9222 86.2942C82.6519 83.8695 82.4401 81.7038 84.5351 79.7735C86.8656 77.6078 89.0784 78.0551 91.8797 78.0551C94.7516 78.0551 97.8354 77.0193 100.543 76.0541C102.379 75.4656 103.556 73.5118 102.991 71.6757Z" fill="#F07371"/>
<path d="M30.8161 103.596C30.0157 103.596 29.2389 103.573 28.415 103.502C17.5158 102.561 11.7955 94.7216 9.20604 86.1294C6.6166 77.5372 8.80585 68.1916 8.80585 68.1916C12.1015 93.6152 25.3547 96.134 29.027 96.4636C35.9714 97.0756 42.6098 94.0625 44.4224 89.4721C47.2943 82.2217 38.4902 75.1125 34.1823 70.7105C31.334 67.7915 30.2746 62.8244 31.0279 58.8932C31.4046 56.8687 32.2991 54.8913 33.9705 53.5966C35.6183 52.3255 39.7614 51.172 39.1964 54.7972C39.0316 55.9271 38.3019 56.8687 37.8546 57.9045C34.6296 65.2491 46.0938 72.0522 49.2246 77.4901C51.7905 81.8921 52.9205 87.2122 50.9901 92.0615C48.2595 98.9824 39.9968 103.596 30.8161 103.596Z" fill="#F07371"/>
<path d="M28.2972 101.713C30.204 101.949 32.1578 101.619 33.8763 100.772C35.5241 99.9712 37.0071 98.7 38.8197 98.5588C39.6907 98.5117 40.7736 99.0296 40.6323 99.877C40.5852 100.183 42.5862 100.748 42.3272 100.913C37.6427 103.832 25.7784 106.727 33.9704 127.749C34.6295 129.42 34.1117 131.303 32.5815 132.221C30.7925 133.304 28.4149 132.598 27.5674 130.691C25.3311 125.771 24.2483 120.334 24.3189 114.919C24.3895 109.646 24.9309 105.032 21.3999 100.63C21.0232 100.183 20.623 99.5475 20.9291 99.0531C21.1174 98.7471 21.494 98.6294 21.8471 98.5353C23.3066 98.1586 24.8603 97.7584 26.3433 98.0644C27.0025 98.2057 34.3706 102.278 34.4412 102.137" fill="#F07371"/>
<path d="M238.301 135.705C233.428 135.117 228.414 135.47 223.8 137.212C219.892 138.695 216.973 141.685 212.477 140.696C209.793 140.107 207.416 138.389 205.744 136.2C202.213 131.609 202.684 126.784 204.002 121.558C205.321 116.379 205.179 110.376 202.849 105.503C202.237 104.208 201.201 103.055 199.859 102.584C198.494 102.113 196.823 102.514 196.022 103.714C195.222 104.938 195.528 106.562 195.81 107.998C196.728 112.4 197.905 117.156 196.587 121.463C195.34 125.56 193.621 129.232 190.679 132.386C185.099 138.389 177.002 141.143 170.01 139.378C164.855 138.083 160.688 134.481 157.887 128.973C156.898 124.665 155.862 119.062 150.519 118.45C149.436 118.333 148.259 118.497 147.435 119.18C146.611 119.886 146.234 121.016 146.234 122.099C146.234 124.806 148.824 126.831 149.295 129.491C150.778 137.636 145.363 146.958 137.148 151.477C130.792 154.985 113.349 156.962 97.7178 143.85C97.0586 143.285 97.0586 142.203 96.423 141.614C95.9993 141.237 95.4579 141.002 94.9165 140.908C92.586 140.461 90.1613 142.673 90.3732 145.027C90.5615 147.17 92.327 148.817 93.9042 150.277C98.0003 154.09 96.1641 155.621 95.4579 157.669C95.2931 158.186 94.9871 158.657 94.94 159.199C94.7988 160.705 97.1057 160.211 98.6123 160.093C100.119 159.975 101.484 159.152 102.944 158.728C104.78 158.21 113.184 161.294 114.832 161.647C119.61 162.683 121.258 163.153 125.378 163.153C130.533 163.153 134.912 165.813 138.678 162.282C144.045 157.268 148.212 153.996 152.967 152.372C155.321 151.572 158.146 151.171 160.123 152.702C161.536 153.784 162.171 155.597 162.666 157.292C163.678 160.776 164.431 164.33 165.914 167.65C167.397 170.945 169.751 174.029 173.047 175.512C174.083 175.983 175.26 176.289 176.39 176.03C177.52 175.771 178.508 174.806 178.532 173.676C178.555 172.899 178.155 172.193 177.731 171.557C176.107 168.968 174.177 166.567 172.741 163.883C171.305 161.2 170.363 158.069 170.952 155.079C172.035 149.547 178.438 147.993 183.028 146.605C187.43 145.263 191.832 142.744 196.564 143.003C199.53 143.168 205.815 146.628 207.698 148.935C208.075 149.406 208.24 149.994 208.334 150.606C209.134 155.573 205.485 160.046 202.025 163.671C201.413 164.307 200.777 165.272 201.295 166.002C201.484 166.261 201.766 166.402 202.049 166.496C204.544 167.461 207.463 166.614 209.581 164.99C214.242 161.459 215.867 155.409 219.845 151.218C223.117 147.805 227.519 145.569 231.968 144.109C247.882 138.883 248.705 151.407 251.554 158.422C254.402 165.437 258.616 160.588 258.663 158.657C258.828 149.5 252.966 137.447 238.301 135.705Z" fill="#F07371"/>
<path d="M89.2666 172.876C86.842 172.734 85.2412 170.216 86.2299 167.979C87.8071 164.401 90.7732 160.846 94.6103 158.116C100.448 153.973 106.286 153.219 112.148 154.891L113.348 160.87C109.558 159.787 102.779 160.988 98.7063 163.883C95.7637 165.978 93.7393 168.544 92.7506 170.686C92.115 172.075 90.7732 172.97 89.2666 172.876Z" fill="#F07371"/>
</svg>
