<svg width="171" height="135" viewBox="0 0 171 135" fill="none" xmlns="http://www.w3.org/2000/svg">
<path d="M146.899 96.6771C142.761 96.5302 148.25 51.7534 148.25 51.7534C148.25 51.7534 149.366 51.6909 151.089 51.8369C143.984 22.7737 120.521 0.266581 84.4308 0.462717C47.5499 0.66315 28.1172 23.4317 21.3368 51.5112C21.9579 51.4796 22.3109 51.4918 22.3109 51.4918C22.3109 51.4918 29.582 98.1054 24.5942 97.483C23.8171 97.3884 22.7008 97.2391 21.3437 96.9641C28.3763 120.478 48.8828 134.205 86.8798 134.111C121.573 134.036 142.04 119.804 149.806 96.4354C148.551 96.6399 147.549 96.7018 146.899 96.6771ZM127.696 99.2808C121.981 110.382 105.644 118.322 85.9878 118.075C60.7108 117.747 45.1949 110.348 40.9193 97.8885C36.7444 85.7537 45.5328 78.9847 45.016 69.64C44.4992 60.2811 35.3679 45.5186 47.3779 36.5576C64.8302 23.5287 72.5501 41.0099 84.7193 40.5625C96.1826 40.1472 108.522 24.3361 122.372 36.842C135.072 48.3091 125.147 59.0521 125.517 69.965C125.82 79.0143 134.78 85.5033 127.696 99.2808Z" fill="#B6885A"/>
<path d="M122.358 36.8421C108.522 24.3361 96.1685 40.1473 84.7051 40.5626C72.5359 40.9959 64.816 23.5288 47.3637 36.5577C35.3679 45.5186 44.485 60.2812 45.0018 69.6401C45.5187 78.9989 36.7303 85.7538 40.9052 97.8886C45.1807 110.348 60.7108 117.747 85.9736 118.076C105.63 118.336 121.967 110.396 127.681 99.2809C134.765 85.5034 125.806 79.0145 125.489 69.9651C125.133 59.0522 135.057 48.3092 122.358 36.8421ZM97.0595 61.1957C97.4266 55.9974 100.859 51.0508 106.383 51.5574C110.734 51.9573 113.478 55.3313 113.355 61.4178C113.201 69.2977 108.343 71.8375 103.992 71.5363C99.6416 71.2352 96.7065 66.3938 97.0595 61.1957ZM85.5215 71.2555C91.4806 71.3361 93.6693 71.3383 93.4878 74.3186C93.385 76.1972 89.5365 79.9458 85.7951 80.0368C82.6326 80.1104 77.9418 76.973 77.6304 74.2354C77.3028 71.1307 79.6753 71.1743 85.5215 71.2555ZM63.1224 52.2585C67.7235 51.8663 71.9452 54.4133 72.6299 60.8907C73.3589 67.7209 69.5997 72.3304 64.9992 72.8214C60.4128 73.3123 56.1969 69.2262 55.602 63.6943C55.0213 58.1624 57.2794 52.7562 63.1224 52.2585ZM114.401 92.8013C114.123 98.7333 104.024 105.876 85.5399 105.822C66.1949 105.757 56.4162 99.1881 56.1453 93.4991C55.8888 87.8807 68.8037 84.351 84.7177 84.4481C110.22 84.6343 114.604 88.5923 114.401 92.8013Z" fill="#FFCD88"/>
<path d="M65.0134 72.8213C69.5998 72.3304 73.373 67.7208 72.644 60.8906C71.9452 54.4132 67.7376 51.8662 63.1366 52.2583C57.2935 52.7561 55.0354 58.1623 55.6303 63.6941C56.2111 69.2261 60.4128 73.3122 65.0134 72.8213Z" fill="#393531"/>
<path d="M103.978 71.5505C108.329 71.8516 113.186 69.3118 113.341 61.4319C113.463 55.3313 110.72 51.9574 106.383 51.5574C100.859 51.0508 97.4265 55.9974 97.0594 61.1957C96.7064 66.3938 99.6274 71.2494 103.978 71.5505Z" fill="#393531"/>
<path d="M85.8093 80.0367C89.5507 79.9457 93.3992 76.1971 93.502 74.3185C93.6694 71.3383 91.4949 71.3501 85.5357 71.2554C79.6895 71.1742 77.3029 71.1307 77.6586 74.2211C77.956 76.9729 82.6468 80.1103 85.8093 80.0367Z" fill="#393531"/>
<path d="M84.7177 84.4622C68.8037 84.351 55.8888 87.8948 56.1453 93.5132C56.4163 99.2022 66.1949 105.771 85.5399 105.836C104.024 105.891 114.123 98.7332 114.401 92.8154C114.604 88.5923 110.22 84.6342 84.7177 84.4622Z" fill="#FF6B17"/>
<path d="M169.965 72.1945C170.114 55.3624 156.994 52.3414 151.075 51.837C151.782 54.7278 152.335 57.6759 152.704 60.6673C156.746 61.3514 162.876 64.1421 162.641 73.0391C162.419 81.4983 155.974 85.6 152.182 86.7219C151.593 90.114 150.792 93.366 149.764 96.4498C156.437 95.4533 169.797 90.5234 169.965 72.1945Z" fill="#B6885A"/>
<path d="M149.628 86.9193C148.891 86.4432 149.626 81.4548 149.716 74.5213C149.793 68.068 148.879 60.9422 149.329 60.6433C149.583 60.4724 150.952 60.3803 152.719 60.6813C152.335 57.6758 151.797 54.7276 151.089 51.8509C149.366 51.705 148.25 51.7675 148.25 51.7675C148.25 51.7675 142.775 96.5442 146.899 96.6912C147.549 96.7159 148.551 96.6681 149.792 96.4778C150.821 93.394 151.622 90.142 152.211 86.75C150.942 87.0957 149.968 87.1434 149.628 86.9193Z" fill="#B6885A"/>
<path d="M7.60215 73.1051C7.53946 61.5692 17.3734 60.132 19.5791 60.6707C20.0141 57.576 20.6047 54.5228 21.3227 51.5254C17.1583 51.7316 0.987497 53.7399 0.411423 72.4523C-0.153525 90.6139 13.9369 95.5218 21.3156 96.9925C20.4096 93.9616 19.7286 90.7741 19.2585 87.4161C15.4559 86.6319 7.65671 83.1442 7.60215 73.1051Z" fill="#B6885A"/>
<path d="M22.2967 51.4919C22.2967 51.4919 21.9437 51.4797 21.3225 51.5113C20.6046 54.5087 20.014 57.5619 19.579 60.6565C19.7911 60.7119 19.9608 60.7674 20.0178 60.8518C20.1886 61.1051 20.0104 67.2907 20.3979 73.6427C20.8158 80.3899 21.7995 87.3175 21.2499 87.5182C20.9963 87.6184 20.2619 87.5801 19.2724 87.3877C19.7424 90.7317 20.4235 93.9333 21.3295 96.9642C22.6865 97.2251 23.8028 97.3885 24.58 97.4831C29.5679 98.1196 22.2967 51.4919 22.2967 51.4919Z" fill="#B6885A"/>
<path d="M7.60207 73.105C7.65663 83.1442 15.4558 86.6319 19.2724 87.4019C18.523 82.012 18.3221 76.2238 18.6559 70.0797C18.8222 66.9159 19.1299 63.7795 19.579 60.6707C17.3733 60.132 7.53938 61.5692 7.60207 73.105Z" fill="#FFCD88"/>
<path d="M19.2725 87.4019C20.262 87.5943 20.9964 87.6326 21.25 87.5324C21.7996 87.3176 20.8159 80.4041 20.398 73.6569C19.9964 67.305 20.1887 61.1193 20.0179 60.866C19.9609 60.7816 19.7912 60.7261 19.5791 60.6707C19.1441 63.7796 18.8223 66.916 18.6559 70.0798C18.3223 76.238 18.5231 82.0121 19.2725 87.4019Z" fill="#FFCD88"/>
<path d="M152.197 86.7361C155.989 85.6141 162.434 81.5124 162.656 73.0532C162.89 64.1562 156.747 61.3656 152.719 60.6815C152.969 62.671 153.164 64.675 153.26 66.7078C153.623 73.8224 153.264 80.5174 152.197 86.7361Z" fill="#FFCD88"/>
<path d="M149.329 60.6292C148.879 60.9281 149.793 68.0539 149.715 74.5072C149.626 81.4548 148.891 86.4292 149.627 86.9052C149.982 87.1292 150.942 87.0958 152.196 86.7218C153.264 80.5173 153.623 73.8223 153.259 66.6936C153.15 64.6609 152.969 62.6568 152.718 60.6672C150.938 60.3663 149.568 60.4584 149.329 60.6292Z" fill="#FFCD88"/>
</svg>
