<svg width="68" height="67" viewBox="0 0 68 67" fill="none" xmlns="http://www.w3.org/2000/svg">
<ellipse cx="39" cy="28.5" rx="28" ry="27.5" stroke="#D9D9D9" stroke-dasharray="2 2"/>
<path d="M61.2573 43.7384C52.6148 56.5619 35.3988 60.0763 22.8043 51.5881C10.2098 43.1 7.00614 25.8235 15.6487 13" stroke="black" stroke-width="5"/>
<path d="M52.5 3C52.5 4.38071 51.3807 5.5 50 5.5C48.6193 5.5 47.5 4.38071 47.5 3C47.5 1.61929 48.6193 0.5 50 0.5C51.3807 0.5 52.5 1.61929 52.5 3Z" fill="white" stroke="black"/>
<path d="M64 10C64 11.6569 62.6569 13 61 13C59.3431 13 58 11.6569 58 10C58 8.34315 59.3431 7 61 7C62.6569 7 64 8.34315 64 10Z" fill="black"/>
<path d="M56 28C56 37.3888 48.3888 45 39 45C29.6112 45 22 37.3888 22 28C22 18.6112 29.6112 11 39 11C48.3888 11 56 18.6112 56 28Z" stroke="black" stroke-width="4"/>
<path d="M22.4834 49.1382L14.8215 58.6615" stroke="black" stroke-width="10"/>
</svg>
